<svg t="1641365979645" class="icon" viewBox="0 0 1024 1024" version="1.1"
    xmlns="http://www.w3.org/2000/svg" p-id="1279" width="200" height="200">
    <path
        d="M835.251 504.791c0-29.747-14.873-57.37-38.953-75.075-9.917-6.374-22.666-4.25-29.747 5.668-6.374 9.918-4.25 22.667 5.668 29.748 12.749 9.205 21.248 24.079 21.248 39.664 0 15.58-7.793 30.454-21.248 39.665-9.918 6.374-12.042 19.83-5.668 29.747 4.25 5.668 10.624 9.206 17.705 9.206 4.25 0 8.5-1.418 12.042-3.543 24.08-17.71 38.953-45.333 38.953-75.08z"
        p-id="1280"></path>
    <path
        d="M834.867 358.18c-9.917-6.375-22.666-4.25-29.747 5.668-6.374 9.917-4.25 22.666 5.668 29.747 36.828 25.497 58.076 67.287 58.076 111.196 0 44.62-21.955 86.41-58.076 111.196-9.918 6.375-12.042 19.83-5.668 29.747 4.25 5.668 10.624 9.206 17.705 9.206 4.25 0 8.5-1.418 12.042-3.543 48.164-33.997 76.493-88.535 76.493-146.611s-28.329-113.321-76.493-146.606z m-569.79 110.49c9.918-6.375 12.043-19.83 5.669-29.748-6.375-9.917-19.83-12.042-29.748-5.668-24.79 17.705-40.37 46.04-40.37 76.493s14.873 59.495 40.37 76.493c3.543 2.831 7.793 3.543 12.043 3.543 7.08 0 13.455-3.543 17.705-9.206 6.374-9.917 4.25-22.666-5.668-29.747a50.719 50.719 0 0 1-21.955-41.79c0-15.585 8.5-31.165 21.955-40.37z"
        p-id="1281"></path>
    <path
        d="M221.169 625.905c-38.247-26.205-60.913-69.412-60.913-115.446s22.666-89.242 60.913-115.446c9.917-6.374 12.042-19.83 5.667-29.747-6.374-9.918-19.83-12.042-29.747-5.668-49.582 33.992-79.329 90.655-79.329 150.856s29.747 116.157 78.618 150.86c3.543 2.832 7.792 3.544 12.042 3.544 7.08 0 13.455-3.543 17.705-9.206 7.08-9.918 4.25-23.373-4.956-29.747z m410.593 59.515l-285.118-51.876 71.998-395.572 285.128 51.712-71.947 395.766-0.061-0.03z m-141.845 89.569l-42.07-7.655a21.381 21.381 0 0 1 7.654-42.07l42.07 7.654a21.381 21.381 0 0 1-7.654 42.07z m227.323-532.87l-294.45-53.575a42.762 42.762 0 0 0-49.716 34.243l-97.367 535.132a42.762 42.762 0 0 0 34.468 49.561l294.45 53.576a42.762 42.762 0 0 0 49.716-34.243l97.367-535.127a42.767 42.767 0 0 0-34.468-49.566z"
        p-id="1282"></path>
</svg>